<svg id="eJWs4C0AGXi1" xmlns="http://www.w3.org/2000/svg" xmlns:xlink="http://www.w3.org/1999/xlink" viewBox="0 0 1920 1080" shape-rendering="geometricPrecision" text-rendering="geometricPrecision" project-id="09695e98682d4aabb1c746c403381c27" export-id="96ea4690fb1947b5b2f4ff07b4636249" cached="false"><path d="M1920,1080h-1242.60904C1327.18347,1047.70837,1694.22077,925.13486,1920,854.5266v225.4734Z" transform="matrix(1.111217 0 0 1.454215-209.390343-484.15217)" fill="#096887" stroke-width="0"/><path d="M1925.74307,793.71759v286.28241h-1398.6072l368.05453-28.64424c169.62513-9.60142,255.50452-14.40213,257.63817-14.40213s87.47963-11.73507,256.03793-35.20522c92.43404-17.70733,139.37433-26.77534,140.82086-27.20403c161.19202-47.77001,84.3431-27.82277,139.22062-48.00711c84.27915-42.67299,126.41873-64.54289,126.41873-65.60972s36.65263-23.47014,109.95788-67.20996h-.00001.45849Z" transform="translate(-5.74307 0)" fill="#9ae58d" stroke-width="0"/><path d="M1923.67166,1089.76147h-1666.24595c145.90656-6.47307,289.90107-12.96158,296.9142-12.96158c9.60142,0,266.17277-22.3501,769.71403-67.0503c197.5592,39.60444,499.77716-45.79604,599.61772-161.62394v241.63582Z" transform="matrix(1.088988 0 0 1-170.709056 0)" fill="#7fc872" stroke="#7fc872"/><path d="M1927.34331,868.92873v217.4713h-1767.76049c5.56551-2.00157,11.26495-4.13398,17.10113-6.40003c763.84417-326.64821,1318.65127,171.89653,1742.85756-211.07127h7.8018Z" fill="#3f95a1" stroke-width="0"/><path d="M729.33597,977.66438C1014.07143,987.48624,1259.2883,1044.0767,1323.47888,1080h-1003.64448c73.10005-28.51887,145.44988-66.22218,409.50157-102.33562Z" fill="#1c7b86" stroke-width="0"/><path d="M-7.74236,1141.53196v-33.4608c84.11246-5.5335,189.40806-12.75721,315.88679-21.67113C369.81992,940.35699,849.47655,943.69296,1252.0665,1080c52.08563,6.3107,101.30665,12.28099,147.66305,17.91086v43.6211h-1407.47191Z" fill="#3f95a1" stroke-width="0"/><path d="M729.33597,977.66438C1014.07143,987.48624,1259.2883,1044.0767,1323.47888,1080h-1003.64448c73.10005-28.51887,145.44988-66.22218,409.50157-102.33562Z" transform="translate(-143.924751 0)" fill="#1c7b86" stroke-width="0"/></svg>
